<svg xmlns="http://www.w3.org/2000/svg" width="949" height="391"><path fill-rule="evenodd" d="M250.064 105.25c-.487 1.237-2.901 7.425-5.364 13.75s-9.288 22.3-15.167 35.5c-31.12 69.872-27.795 63.064-29.233 59.867-1.11-2.467-27.457-61.969-32.15-72.607l-1.65-3.74-31.25-.01L104 138V152.967l26.182.266 26.182.267 7.675 17.5c7.028 16.026 28.738 64.964 34.57 77.925 1.384 3.076 2.8 5.025 3.271 4.5.456-.509 3.889-7.9 7.628-16.425 3.74-8.525 7.134-15.95 7.544-16.5.409-.55 5.687-12.025 11.729-25.5 6.041-13.475 13.997-31.025 17.678-39 3.682-7.975 8.974-19.787 11.76-26.25l5.067-11.75H617v-15H250.95l-.886 2.25m59.161 33.272c-21.529 4.676-41.016 23.702-45.272 44.204-1.766 8.508-.744 24.369 2.048 31.774 5.225 13.855 16.541 26.618 29.245 32.982 18.791 9.413 43.795 8.401 60.589-2.454 29.998-19.388 37.14-58.674 15.493-85.223-4.449-5.457-14.805-13.987-20.521-16.904-10.649-5.432-28.215-7.282-41.582-4.379m133.977.435c-11.225 3.041-18.72 7.493-27.786 16.506-13.106 13.031-18.511 27.052-17.057 44.251 1.211 14.333 6.97 25.995 18.207 36.874 18.314 17.73 47.383 22.375 71.966 11.501l4.468-1.977v-18.137l-7.001 3.525c-16.406 8.262-32.138 8.702-47.764 1.337-21.207-9.997-29.973-34.648-19.733-55.495 10.757-21.899 36.047-29.775 64.419-20.061L493 160.732v-8.391c0-8.2-.061-8.414-2.706-9.419-15.013-5.708-34.579-7.356-47.092-3.965m108.438 1.224c-.794 1.825-4.368 9.844-7.941 17.819-3.574 7.975-12.12 27.1-18.992 42.5-21.481 48.137-26.313 58.78-30.078 66.25l-3.654 7.25H262v15h242.624l5.22-13.25c2.871-7.288 8.709-21.35 12.975-31.25l7.754-18 23.747-.268 23.747-.268 3.053 6.768c7.088 15.711 11.968 27.706 16.905 41.551L603.272 289H847v-15H617.303l-1.552-3.75c-.854-2.062-5.694-12.75-10.755-23.75-5.061-11-14.51-31.7-20.998-46-6.488-14.3-15.564-34.291-20.169-44.424-4.606-10.133-8.907-18.602-9.559-18.819-.652-.218-1.835 1.098-2.63 2.924M635 195.504v58.698l24.75-.472c27.394-.523 30.365-1.029 43.25-7.366 10.016-4.926 20.429-15.224 24.895-24.618 11.004-23.148 6.697-54.865-9.456-69.628-3.048-2.786-8.371-6.415-11.829-8.065-11.529-5.503-16.666-6.27-45.36-6.781l-26.25-.466v58.698m113-.08V254h22.79c24.46 0 29.818-.741 38.997-5.392 5.629-2.852 13.407-10.847 15.816-16.255 2.698-6.058 2.466-18.615-.455-24.592-3.21-6.569-9.879-12.165-17.061-14.316l-5.858-1.755 4.841-2.412c9.581-4.775 14.873-13.546 14.908-24.712.038-11.837-5.835-19.965-17.899-24.774-5.144-2.051-7.549-2.252-30.829-2.584l-25.25-.36v58.576m-436.382-41.312c-6.143 1.442-15.591 6.957-20.737 12.102-2.6 2.6-6.224 7.768-8.054 11.485-3.16 6.421-3.327 7.312-3.327 17.801 0 10.421.182 11.411 3.227 17.597 13.896 28.226 53.487 33.58 74.408 10.062 11.315-12.72 13.885-30.375 6.679-45.888-2.652-5.709-12.761-16.183-18.393-19.056-9.137-4.662-23.828-6.445-33.803-4.103M768 169.613v16.614l10.25-.389c8.59-.325 10.971-.789 14.699-2.863 5.326-2.963 7.939-7.082 8.646-13.628.715-6.631-1.705-11.146-7.557-14.097-3.805-1.919-6.051-2.25-15.25-2.25H768v16.613m-113 25.906v41.699l14.75-.377c14.009-.358 15.079-.532 21.297-3.462 8.552-4.029 12.948-8.004 16.691-15.094 4.314-8.171 5.617-15.219 5.07-27.43-.576-12.856-3.601-20.517-10.738-27.193-7.656-7.161-13.799-8.986-31.82-9.449l-15.25-.392v41.698m-101.839-19.477c-.522 1.352-3.733 8.523-7.137 15.936-3.403 7.413-6.803 14.95-7.555 16.75L537.102 212h34.782l-4.577-9.75a2300.483 2300.483 0 0 1-8.887-19.208c-3.947-8.66-4.391-9.251-5.259-7M104 182.5v7.5h26v-15h-26v7.5M768 220v18l11.25-.006c6.188-.003 13.029-.499 15.203-1.103 11.653-3.235 16.393-19.302 8.385-28.422-4.18-4.761-10.521-6.469-24.02-6.469H768v18m-664-1.5v7.5h13v-15h-13v7.5"/><path fill-rule="evenodd" d="M493.355 152.5c-.003 4.95.166 7.101.376 4.78.209-2.321.212-6.371.005-9-.206-2.629-.378-.73-.381 4.22m-231.012 42c.003 4.4.179 6.076.39 3.724.212-2.352.209-5.952-.006-8s-.388-.124-.384 4.276m229.072 33.638c-.467.756-.289.902.502.414.942-.583 1.151 1.437.904 8.753-.177 5.231.016 9.3.429 9.044.413-.257.75-4.464.75-9.349 0-8.353-.93-11.54-2.585-8.862"/></svg>